<svg xmlns="http://www.w3.org/2000/svg" width="1600" height="960" viewBox="0 0 1600 960">
<defs>
  <linearGradient id="bg" x1="0" y1="0" x2="1" y2="1">
    <stop offset="0" stop-color="#0C2429"/><stop offset="1" stop-color="#123339"/>
  </linearGradient>
  <linearGradient id="tealgrad" x1="0" y1="0" x2="0" y2="1">
    <stop offset="0" stop-color="#39BAA6"/><stop offset="1" stop-color="#2B9182"/>
  </linearGradient>
  <linearGradient id="embergrad" x1="0" y1="0" x2="0" y2="1">
    <stop offset="0" stop-color="#EB715F"/><stop offset="1" stop-color="#C6533F"/>
  </linearGradient>
  <filter id="soft" x="-20%" y="-20%" width="140%" height="140%">
    <feGaussianBlur stdDeviation="9"/>
  </filter>
</defs>
<rect x="0" y="0" width="1600" height="960" rx="0" ry="0" fill="url(#bg)"/>
<rect x="0" y="0" width="1600" height="4" fill="#39BAA6" opacity="0.9"/>
<g transform="translate(70,66) scale(0.8)"><path d="M -23.0 -11.0 C -23.0 -18.0, -23.0 -18.0, -12.65 -22.0 C -4.6000000000000005 -26.0, 4.6000000000000005 -26.0, 12.65 -22.0 C 23.0 -18.0, 23.0 -18.0, 23.0 -11.0 C 23.0 4.16, 14.26 19.759999999999998, 0 26.0 C -14.26 19.759999999999998, -23.0 4.16, -23.0 -11.0 Z" fill="url(#tealgrad)" stroke="#39BAA6" stroke-width="2.5"/><rect x="-2.76" y="-7.36" width="5.52" height="14.72" rx="2.76" ry="2.76" fill="#0C2429" opacity="0.92"/><rect x="-7.36" y="-2.76" width="14.72" height="5.52" rx="2.76" ry="2.76" fill="#0C2429" opacity="0.92"/></g>
<text x="104" y="60" font-family="Liberation Sans, DejaVu Sans, sans-serif" font-size="30" font-weight="bold" fill="#EAF3F2" text-anchor="start" letter-spacing="-0.5">MedNav — agent architecture</text>
<text x="105" y="86" font-family="Liberation Sans, DejaVu Sans, sans-serif" font-size="16" font-weight="normal" fill="#9CBBBD" text-anchor="start">multi-agent care navigation on Google ADK</text>
<text x="1536" y="60" font-family="Liberation Sans, DejaVu Sans, sans-serif" font-size="16" font-weight="bold" fill="#39BAA6" text-anchor="end">Gemini 2.5 Flash · ADK · MCP · A2A</text>
<rect x="490.0" y="112" width="620" height="62" rx="16" ry="16" fill="#15373E" stroke="#2C5661" stroke-width="1.5"/>
<text x="800.0" y="140" font-family="Liberation Sans, DejaVu Sans, sans-serif" font-size="20" font-weight="bold" fill="#EAF3F2" text-anchor="middle">Patient</text>
<text x="800.0" y="162" font-family="Liberation Sans, DejaVu Sans, sans-serif" font-size="15" font-weight="normal" fill="#9CBBBD" text-anchor="middle">text  ·  PDF  ·  image  ·  audio  ·  inbound email</text>
<line x1="800.0" y1="174" x2="800.0" y2="187.0" stroke="#39BAA6" stroke-width="2.4" stroke-linecap="round"/><polygon points="800.0,196.0 796.3,187.8 803.7,187.8" fill="#39BAA6"/>
<rect x="400.0" y="208" width="800" height="88" rx="18" ry="18" fill="#000000" opacity="0.28" filter="url(#soft)"/>
<rect x="400.0" y="198" width="800" height="88" rx="18" ry="18" fill="#15373E" stroke="#39BAA6" stroke-width="2.2"/>
<text x="800.0" y="232" font-family="Liberation Sans, DejaVu Sans, sans-serif" font-size="24" font-weight="bold" fill="#EAF3F2" text-anchor="middle">care_navigator  —  root agent</text>
<text x="800.0" y="262" font-family="Liberation Sans, DejaVu Sans, sans-serif" font-size="16" font-weight="normal" fill="#9CBBBD" text-anchor="middle">orchestration  ·  tool routing  ·  approval gates</text>
<rect x="64" y="316" width="1472" height="58" rx="14" ry="14" fill="#0E2A30" stroke="#2C5661" stroke-width="1.5" stroke-dasharray="2 6"/>
<text x="86" y="340" font-family="Liberation Sans, DejaVu Sans, sans-serif" font-size="13" font-weight="bold" fill="#9CBBBD" text-anchor="start" letter-spacing="1.5">DEFENSE IN DEPTH</text>
<text x="86" y="362" font-family="Liberation Sans, DejaVu Sans, sans-serif" font-size="12" font-weight="normal" fill="#9CBBBD" text-anchor="start">wraps every turn</text>
<text x="284.0" y="352" font-family="Liberation Sans, DejaVu Sans, sans-serif" font-size="16" font-weight="bold" fill="#EAF3F2" text-anchor="start">①  deterministic pre-filter</text>
<text x="592.0" y="352" font-family="Liberation Sans, DejaVu Sans, sans-serif" font-size="16" font-weight="bold" fill="#EAF3F2" text-anchor="start">②  semantic quarantine</text>
<text x="900.0" y="352" font-family="Liberation Sans, DejaVu Sans, sans-serif" font-size="16" font-weight="bold" fill="#EAF3F2" text-anchor="start">③  LLM-as-Judge (output + tool calls)</text>
<text x="1208.0" y="352" font-family="Liberation Sans, DejaVu Sans, sans-serif" font-size="16" font-weight="bold" fill="#EAF3F2" text-anchor="start">④  human approval gates</text>
<line x1="800.0" y1="286" x2="800.0" y2="307.0" stroke="#39BAA6" stroke-width="2.4" stroke-linecap="round"/><polygon points="800.0,316.0 796.3,307.8 803.7,307.8" fill="#39BAA6"/>
<line x1="800.0" y1="374" x2="800.0" y2="387.0" stroke="#39BAA6" stroke-width="2.4" stroke-linecap="round"/><polygon points="800.0,396.0 796.3,387.8 803.7,387.8" fill="#39BAA6"/>
<line x1="800.0" y1="396" x2="307.3" y2="407.8" stroke="#2C5661" stroke-width="2" stroke-linecap="round"/><polygon points="299.3,408.0 306.6,404.6 306.7,411.1" fill="#2C5661"/>
<line x1="800.0" y1="396" x2="800.0" y2="400.0" stroke="#2C5661" stroke-width="2" stroke-linecap="round"/><polygon points="800.0,408.0 796.7,400.7 803.3,400.7" fill="#2C5661"/>
<line x1="800.0" y1="396" x2="1292.7" y2="407.8" stroke="#2C5661" stroke-width="2" stroke-linecap="round"/><polygon points="1300.7,408.0 1293.3,411.1 1293.4,404.6" fill="#2C5661"/>
<rect x="64" y="418" width="470.6666666666667" height="300" rx="16" ry="16" fill="#000000" opacity="0.28" filter="url(#soft)"/><rect x="64" y="408" width="470.6666666666667" height="300" rx="16" ry="16" fill="#15373E" stroke="#2C5661" stroke-width="1.5"/><rect x="64" y="408" width="6" height="300" rx="3" fill="#39BAA6"/><text x="90" y="444" font-family="Liberation Sans, DejaVu Sans, sans-serif" font-size="19" font-weight="bold" fill="#EAF3F2" text-anchor="start">Counterparty sub-agents</text><text x="90" y="466" font-family="Liberation Sans, DejaVu Sans, sans-serif" font-size="13" font-weight="normal" fill="#9CBBBD" text-anchor="start">invoked via AgentTool</text><rect x="84" y="492" width="430.6666666666667" height="58" rx="11" ry="11" fill="#0E2A30" stroke="#2C5661" stroke-width="1.2"/><circle cx="104" cy="521.0" r="4.5" fill="#39BAA6"/><text x="120" y="516" font-family="Liberation Sans, DejaVu Sans, sans-serif" font-size="15" font-weight="bold" fill="#EAF3F2" text-anchor="start">insurance_reviewer</text><text x="120" y="536" font-family="DejaVu Sans Mono, monospace" font-size="12.5" font-weight="normal" fill="#9CBBBD" text-anchor="start">prior-auth decisions</text><rect x="84" y="562" width="430.6666666666667" height="58" rx="11" ry="11" fill="#0E2A30" stroke="#2C5661" stroke-width="1.2"/><circle cx="104" cy="591.0" r="4.5" fill="#39BAA6"/><text x="120" y="586" font-family="Liberation Sans, DejaVu Sans, sans-serif" font-size="15" font-weight="bold" fill="#EAF3F2" text-anchor="start">provider_office</text><text x="120" y="606" font-family="DejaVu Sans Mono, monospace" font-size="12.5" font-weight="normal" fill="#9CBBBD" text-anchor="start">scheduling · records</text>
<rect x="564.6666666666667" y="418" width="470.6666666666667" height="300" rx="16" ry="16" fill="#000000" opacity="0.28" filter="url(#soft)"/><rect x="564.6666666666667" y="408" width="470.6666666666667" height="300" rx="16" ry="16" fill="#15373E" stroke="#2C5661" stroke-width="1.5"/><rect x="564.6666666666667" y="408" width="6" height="300" rx="3" fill="#39BAA6"/><text x="590.6666666666667" y="444" font-family="Liberation Sans, DejaVu Sans, sans-serif" font-size="19" font-weight="bold" fill="#EAF3F2" text-anchor="start">Local case tools</text><text x="590.6666666666667" y="466" font-family="Liberation Sans, DejaVu Sans, sans-serif" font-size="13" font-weight="normal" fill="#9CBBBD" text-anchor="start">in-process state</text><rect x="584.6666666666667" y="492" width="430.6666666666667" height="58" rx="11" ry="11" fill="#0E2A30" stroke="#2C5661" stroke-width="1.2"/><circle cx="604.6666666666667" cy="521.0" r="4.5" fill="#39BAA6"/><text x="620.6666666666667" y="516" font-family="Liberation Sans, DejaVu Sans, sans-serif" font-size="15" font-weight="bold" fill="#EAF3F2" text-anchor="start">get_benefits / profile</text><text x="620.6666666666667" y="536" font-family="DejaVu Sans Mono, monospace" font-size="12.5" font-weight="normal" fill="#9CBBBD" text-anchor="start">plan facts (lookup)</text><rect x="584.6666666666667" y="562" width="430.6666666666667" height="58" rx="11" ry="11" fill="#0E2A30" stroke="#2C5661" stroke-width="1.2"/><circle cx="604.6666666666667" cy="591.0" r="4.5" fill="#39BAA6"/><text x="620.6666666666667" y="586" font-family="Liberation Sans, DejaVu Sans, sans-serif" font-size="15" font-weight="bold" fill="#EAF3F2" text-anchor="start">save_document / list</text><text x="620.6666666666667" y="606" font-family="DejaVu Sans Mono, monospace" font-size="12.5" font-weight="normal" fill="#9CBBBD" text-anchor="start">trusted document store</text><rect x="584.6666666666667" y="632" width="430.6666666666667" height="58" rx="11" ry="11" fill="#0E2A30" stroke="#2C5661" stroke-width="1.2"/><circle cx="604.6666666666667" cy="661.0" r="4.5" fill="#EB715F"/><text x="620.6666666666667" y="656" font-family="Liberation Sans, DejaVu Sans, sans-serif" font-size="15" font-weight="bold" fill="#EAF3F2" text-anchor="start">quarantine_document</text><text x="620.6666666666667" y="676" font-family="DejaVu Sans Mono, monospace" font-size="12.5" font-weight="normal" fill="#9CBBBD" text-anchor="start">dead-letter store</text>
<rect x="1065.3333333333335" y="418" width="470.6666666666667" height="300" rx="16" ry="16" fill="#000000" opacity="0.28" filter="url(#soft)"/><rect x="1065.3333333333335" y="408" width="470.6666666666667" height="300" rx="16" ry="16" fill="#15373E" stroke="#2C5661" stroke-width="1.5"/><rect x="1065.3333333333335" y="408" width="6" height="300" rx="3" fill="#39BAA6"/><text x="1091.3333333333335" y="444" font-family="Liberation Sans, DejaVu Sans, sans-serif" font-size="19" font-weight="bold" fill="#EAF3F2" text-anchor="start">External integrations</text><text x="1091.3333333333335" y="466" font-family="Liberation Sans, DejaVu Sans, sans-serif" font-size="13" font-weight="normal" fill="#9CBBBD" text-anchor="start">third-party, guarded</text><rect x="1085.3333333333335" y="492" width="430.6666666666667" height="58" rx="11" ry="11" fill="#0E2A30" stroke="#2C5661" stroke-width="1.2"/><circle cx="1105.3333333333335" cy="521.0" r="4.5" fill="#39BAA6"/><text x="1121.3333333333335" y="516" font-family="Liberation Sans, DejaVu Sans, sans-serif" font-size="15" font-weight="bold" fill="#EAF3F2" text-anchor="start">Google Maps  ·  MCP</text><text x="1121.3333333333335" y="536" font-family="DejaVu Sans Mono, monospace" font-size="12.5" font-weight="normal" fill="#9CBBBD" text-anchor="start">stdio · least-priv env</text><rect x="1085.3333333333335" y="562" width="430.6666666666667" height="58" rx="11" ry="11" fill="#0E2A30" stroke="#2C5661" stroke-width="1.2"/><circle cx="1105.3333333333335" cy="591.0" r="4.5" fill="#39BAA6"/><text x="1121.3333333333335" y="586" font-family="Liberation Sans, DejaVu Sans, sans-serif" font-size="15" font-weight="bold" fill="#EAF3F2" text-anchor="start">Gmail API</text><text x="1121.3333333333335" y="606" font-family="DejaVu Sans Mono, monospace" font-size="12.5" font-weight="normal" fill="#9CBBBD" text-anchor="start">patient OAuth</text><rect x="1085.3333333333335" y="632" width="430.6666666666667" height="58" rx="11" ry="11" fill="#0E2A30" stroke="#2C5661" stroke-width="1.2"/><circle cx="1105.3333333333335" cy="661.0" r="4.5" fill="#EB715F"/><text x="1121.3333333333335" y="656" font-family="Liberation Sans, DejaVu Sans, sans-serif" font-size="15" font-weight="bold" fill="#EAF3F2" text-anchor="start">Bland.ai</text><text x="1121.3333333333335" y="676" font-family="DejaVu Sans Mono, monospace" font-size="12.5" font-weight="normal" fill="#9CBBBD" text-anchor="start">approval-gated call</text>
<rect x="64" y="744" width="1472" height="150" rx="16" ry="16" fill="#15373E" stroke="#2C5661" stroke-width="1.5"/>
<text x="90" y="778" font-family="Liberation Sans, DejaVu Sans, sans-serif" font-size="19" font-weight="bold" fill="#EAF3F2" text-anchor="start">Serving &amp; platform layer</text>
<rect x="90.0" y="792" width="341.0" height="40" rx="10" ry="10" fill="#0E2A30" stroke="#2C5661" stroke-width="1.2"/>
<text x="102.0" y="817" font-family="Liberation Sans, DejaVu Sans, sans-serif" font-size="12.5" font-weight="normal" fill="#EAF3F2" text-anchor="start">FastAPI + ADK web UI</text>
<rect x="445.0" y="792" width="341.0" height="40" rx="10" ry="10" fill="#0E2A30" stroke="#2C5661" stroke-width="1.2"/>
<text x="457.0" y="810" font-family="Liberation Sans, DejaVu Sans, sans-serif" font-size="12.5" font-weight="normal" fill="#EAF3F2" text-anchor="start">A2A — agent card +</text>
<text x="457.0" y="826" font-family="Liberation Sans, DejaVu Sans, sans-serif" font-size="12.5" font-weight="normal" fill="#EAF3F2" text-anchor="start">JSON-RPC</text>
<rect x="800.0" y="792" width="341.0" height="40" rx="10" ry="10" fill="#0E2A30" stroke="#2C5661" stroke-width="1.2"/>
<text x="812.0" y="810" font-family="Liberation Sans, DejaVu Sans, sans-serif" font-size="12.5" font-weight="normal" fill="#EAF3F2" text-anchor="start">OpenTelemetry → Cloud Trace/Logging </text>
<text x="812.0" y="826" font-family="Liberation Sans, DejaVu Sans, sans-serif" font-size="12.5" font-weight="normal" fill="#EAF3F2" text-anchor="start">(prompt content suppressed)</text>
<rect x="1155.0" y="792" width="341.0" height="40" rx="10" ry="10" fill="#0E2A30" stroke="#2C5661" stroke-width="1.2"/>
<text x="1167.0" y="810" font-family="Liberation Sans, DejaVu Sans, sans-serif" font-size="12.5" font-weight="normal" fill="#EAF3F2" text-anchor="start">Sessions &amp; artifacts —</text>
<text x="1167.0" y="826" font-family="Liberation Sans, DejaVu Sans, sans-serif" font-size="12.5" font-weight="normal" fill="#EAF3F2" text-anchor="start">in-memory · GCS · Vertex</text>
<text x="90" y="870" font-family="Liberation Sans, DejaVu Sans, sans-serif" font-size="13.5" font-weight="normal" fill="#9CBBBD" text-anchor="start">Deploy:  Docker (Cloud Run)   ·   Terraform IaC — least-privilege service account + Secret Manager   ·   authenticated-invoker by default</text>
<line x1="800.0" y1="708" x2="800.0" y2="736.0" stroke="#2C5661" stroke-width="2" stroke-linecap="round"/><polygon points="800.0,744.0 796.7,736.7 803.3,736.7" fill="#2C5661"/>
<text x="64" y="940" font-family="Liberation Sans, DejaVu Sans, sans-serif" font-size="14" font-weight="normal" fill="#9CBBBD" text-anchor="start">github.com/Binary-yev/MedFriend</text>
<text x="1536" y="940" font-family="Liberation Sans, DejaVu Sans, sans-serif" font-size="14" font-weight="normal" fill="#9CBBBD" text-anchor="end">Kaggle AI Agents Capstone — Concierge track</text>
</svg>